<?xml version="1.0" standalone="no"?>
<!DOCTYPE svg PUBLIC "-//W3C//DTD SVG 20010904//EN"
 "http://www.w3.org/TR/2001/REC-SVG-20010904/DTD/svg10.dtd">
<svg version="1.0" xmlns="http://www.w3.org/2000/svg"
 width="427.000000pt" height="400.000000pt" viewBox="0 0 427.000000 400.000000"
 preserveAspectRatio="xMidYMid meet">
<metadata>
Created by potrace 1.16, written by Peter Selinger 2001-2019
</metadata>
<g transform="translate(0.000000,400.000000) scale(0.100000,-0.100000)"
fill="#000000" stroke="none">
<path d="M0 3135 c0 -525 4 -865 9 -865 19 0 50 52 60 101 6 27 11 85 11 127
0 131 29 471 51 602 25 145 65 294 107 398 56 137 113 224 264 403 20 24 39
56 43 72 l7 27 -276 0 -276 0 0 -865z"/>
<path d="M3140 3995 c0 -21 38 -86 87 -152 190 -253 302 -506 387 -878 28
-122 61 -307 72 -400 8 -69 38 -157 68 -199 12 -15 57 -54 101 -86 44 -32 134
-101 200 -155 112 -90 180 -135 205 -135 7 0 10 316 10 1005 l0 1005 -565 0
c-311 0 -565 -2 -565 -5z"/>
<path d="M685 3467 c-28 -28 -35 -43 -35 -75 0 -72 51 -114 203 -168 39 -15
102 -42 139 -60 l67 -34 -24 -47 c-52 -103 -98 -673 -65 -815 5 -24 17 -95 26
-158 8 -63 26 -162 40 -218 34 -148 35 -145 -33 -166 -79 -24 -230 -96 -300
-143 -71 -47 -182 -150 -227 -212 -47 -63 -100 -172 -125 -256 -21 -69 -21
-74 -6 -205 19 -162 40 -300 61 -392 18 -77 75 -173 167 -278 50 -56 57 -70
57 -106 0 -83 12 -134 30 -134 16 0 17 5 9 38 -5 20 -9 54 -9 75 l0 38 43 -29
c84 -57 174 -76 253 -53 31 9 32 8 38 -30 l6 -39 1469 0 1469 0 17 88 c14 67
19 149 21 352 4 261 3 266 -21 335 -72 201 -133 291 -314 467 -153 148 -304
272 -452 370 -85 56 -116 83 -155 136 -27 37 -88 117 -135 177 l-86 110 -7
111 c-7 103 -6 111 13 128 18 16 21 31 21 93 0 68 -2 74 -24 82 -21 9 -24 19
-35 113 -6 57 -18 129 -25 161 l-14 58 107 98 c58 54 144 132 191 173 110 95
150 154 150 217 0 53 -18 84 -60 106 -80 42 -126 15 -314 -181 l-159 -165 -26
48 c-61 111 -167 244 -242 304 -62 49 -277 100 -484 114 -219 15 -461 -46
-635 -161 l-36 -24 -180 91 c-171 87 -185 92 -257 97 l-76 5 -36 -36z m1437
-41 c208 -43 217 -47 303 -137 73 -77 145 -177 181 -252 l17 -36 -37 -46 -38
-45 -25 19 c-13 11 -49 29 -80 41 -62 23 -203 39 -203 23 0 -6 30 -13 68 -16
121 -10 245 -67 215 -98 -10 -10 -21 -8 -54 6 -65 30 -156 25 -255 -14 -85
-33 -123 -55 -112 -66 3 -3 33 8 67 24 74 38 182 64 225 56 57 -12 96 -26 96
-37 0 -5 -16 -29 -35 -52 -34 -42 -36 -43 -85 -38 -60 6 -128 -12 -171 -44
l-32 -23 -76 63 c-42 35 -116 89 -166 121 -49 31 -137 89 -195 128 -58 40
-185 120 -284 178 l-178 107 68 38 c233 130 483 162 786 100z m-930 -370 c51
-29 119 -69 150 -88 l58 -35 -43 -13 c-23 -7 -63 -23 -88 -35 -61 -31 -134
-115 -101 -115 5 0 15 11 22 25 19 35 90 80 166 105 l65 22 59 -39 58 -38 -96
0 c-79 0 -106 -5 -147 -23 -78 -36 -152 -119 -142 -159 3 -14 6 -13 15 9 18
44 84 110 129 130 55 24 152 33 229 20 52 -9 82 -25 210 -108 82 -53 186 -129
232 -168 l84 -71 -154 -3 c-84 -1 -182 2 -218 8 -124 21 -385 24 -515 6 -66
-9 -130 -19 -142 -22 -21 -6 -23 -3 -23 37 0 85 21 325 36 424 13 84 46 185
60 185 2 0 45 -24 96 -54z m1537 -403 c6 -43 13 -101 17 -130 l6 -52 -33 4
c-107 14 -184 26 -187 29 -4 5 171 226 179 226 4 0 12 -35 18 -77z m-370 21
c-26 -31 -111 -62 -93 -33 7 11 81 48 98 49 5 0 3 -7 -5 -16z m-391 -344 c7
-11 19 -41 28 -66 l15 -45 -43 -57 c-61 -79 -361 -391 -371 -385 -4 2 13 43
38 90 25 47 45 87 45 89 0 2 -7 4 -15 4 -19 0 -82 -115 -116 -214 -29 -83 -62
-135 -89 -140 -31 -6 -46 -17 -47 -36 -1 -13 2 -18 9 -14 7 4 8 2 4 -4 -4 -7
-16 -17 -28 -23 -17 -9 -19 -8 -14 9 8 25 -19 51 -36 34 -16 -16 -31 -15 -22
1 6 8 3 8 -9 -1 -19 -16 -37 -8 -37 17 0 10 -7 18 -15 18 -9 0 -13 -8 -11 -21
2 -12 9 -21 17 -21 8 0 14 -6 14 -14 0 -8 6 -16 13 -18 6 -3 12 3 12 13 0 15
2 16 13 3 6 -8 11 -13 10 -10 -2 4 23 31 30 31 2 0 4 -6 4 -12 0 -7 3 -23 7
-35 8 -24 -10 -38 -58 -47 -23 -4 -26 -3 -16 10 11 13 9 18 -5 12 -3 -2 -9 3
-14 10 -7 11 -9 11 -14 -2 -4 -9 -2 -16 3 -16 5 0 7 -7 3 -15 -3 -9 -2 -15 3
-14 21 4 25 -2 13 -18 -12 -16 -12 -17 2 -6 9 7 20 9 24 5 5 -4 5 -2 2 4 -4 7
0 14 8 18 22 8 18 -5 -14 -44 -25 -30 -31 -32 -45 -21 -31 26 -106 158 -106
187 0 21 -3 25 -9 15 -11 -18 -48 98 -55 174 -2 28 -17 113 -34 190 -30 142
-48 264 -38 255 3 -3 20 -46 39 -95 32 -87 35 -91 83 -115 46 -23 58 -24 214
-23 138 0 181 4 260 24 52 12 99 22 103 21 5 -2 6 2 2 8 -3 5 -2 10 4 10 12 0
47 92 70 185 27 106 35 115 101 115 44 0 58 -4 68 -20z m802 -208 c0 -36 0
-36 -16 -14 -9 13 -13 31 -9 42 10 31 25 13 25 -28z m-359 -135 l135 -2 88
-108 c51 -62 84 -112 80 -119 -4 -7 -3 -8 5 -4 18 12 22 -15 8 -69 -11 -42
-17 -50 -39 -53 -15 -2 -29 -11 -33 -20 -5 -14 -4 -15 6 -4 7 6 21 12 31 12
17 0 16 -3 -3 -52 -11 -29 -28 -61 -36 -70 -9 -10 -12 -18 -7 -18 5 0 1 -7 -9
-14 -10 -8 -17 -18 -15 -22 4 -18 -14 -74 -22 -69 -5 3 -8 -8 -8 -24 1 -17 -5
-37 -12 -46 -7 -8 -10 -15 -7 -15 6 0 -50 -162 -79 -227 -20 -44 -18 -40 -28
-75 -5 -16 -12 -28 -18 -28 -5 0 -7 -4 -3 -9 3 -5 -2 -16 -11 -25 -8 -9 -12
-20 -9 -26 3 -5 1 -10 -4 -10 -6 0 -10 -3 -9 -7 1 -5 -6 -25 -15 -46 -11 -25
-21 -36 -28 -31 -8 4 -9 3 -5 -4 10 -17 -43 -89 -117 -159 -106 -98 -221 -141
-346 -129 -67 7 -109 27 -150 69 -22 24 -22 26 -6 51 10 14 26 26 36 26 11 0
19 6 19 13 0 17 33 44 47 40 6 -2 14 0 17 5 6 10 -24 9 -42 -2 -7 -4 -15 -1
-18 8 -3 9 -10 16 -15 16 -6 0 -5 -8 1 -19 13 -25 13 -34 0 -26 -6 3 -7 -1 -4
-9 3 -9 2 -16 -4 -16 -6 0 -12 5 -14 12 -2 6 -12 -5 -22 -25 -9 -20 -20 -37
-25 -37 -4 0 -18 11 -31 25 -18 19 -20 26 -9 30 8 3 16 18 17 32 2 21 -1 24
-10 15 -9 -9 -15 -9 -27 1 -14 10 -14 10 -4 -3 18 -23 0 -46 -18 -24 -12 16
-12 17 1 10 8 -4 2 2 -13 14 -22 18 -25 25 -16 36 9 12 9 13 -4 8 -17 -6 -37
22 -37 55 0 11 -4 23 -10 26 -6 4 -7 -1 -3 -11 4 -12 3 -15 -5 -10 -7 4 -12
16 -12 27 0 10 -4 19 -10 19 -20 0 -28 35 -13 60 9 17 12 18 8 5 -3 -11 -3
-16 1 -12 8 8 34 -11 34 -25 0 -6 -7 -5 -15 2 -9 7 -15 8 -15 2 0 -5 7 -13 16
-16 8 -3 12 -10 9 -16 -3 -5 -1 -10 5 -10 7 0 10 7 6 15 -3 10 1 15 12 15 15
0 15 2 2 10 -20 12 -19 16 5 35 11 9 14 14 8 10 -28 -14 -53 -14 -53 1 0 16
-2 16 -24 8 -9 -3 -16 -14 -16 -23 -1 -9 -10 1 -21 22 -22 41 -12 82 16 71 8
-4 13 -9 11 -13 -3 -4 4 -7 14 -7 13 0 17 7 16 23 -4 33 -14 39 -31 17 -8 -10
-15 -15 -15 -10 0 5 -9 1 -20 -9 -19 -17 -26 -12 -21 18 0 4 -3 7 -7 7 -4 0
-16 22 -26 50 -18 49 -15 77 6 64 7 -5 9 -1 5 8 -3 10 3 24 15 35 15 12 19 13
14 3 -4 -8 0 -6 8 4 11 13 16 15 16 6 0 -7 3 -10 6 -7 4 4 1 13 -6 22 -10 12
-10 15 4 15 9 0 16 6 16 14 0 8 16 33 35 56 l35 42 0 -60 c0 -33 7 -78 15
-101 8 -23 16 -53 18 -66 1 -13 6 -27 9 -31 4 -3 4 -13 1 -22 -4 -10 -2 -14 2
-9 5 4 17 -25 27 -64 31 -125 83 -190 179 -225 34 -12 64 -14 137 -9 108 7
174 25 226 60 21 14 43 22 49 19 7 -4 9 -4 5 1 -11 12 12 47 27 41 17 -6 30
10 16 18 -13 8 17 65 48 93 14 12 21 23 15 23 -7 0 -15 -7 -18 -16 -4 -9 -9
-14 -12 -11 -3 3 1 18 9 34 8 15 17 45 21 66 4 20 11 37 15 37 5 0 7 12 5 26
-4 40 20 227 29 218 4 -4 0 7 -8 24 -24 46 -61 72 -106 72 -41 0 -47 7 -26 30
6 8 2 6 -9 -3 -17 -14 -31 -17 -60 -11 -22 4 -42 12 -46 18 -5 8 -8 7 -8 -1 0
-7 -12 -13 -28 -13 -15 0 -34 6 -41 13 -10 10 -12 9 -9 -2 2 -8 -5 -17 -16
-19 -11 -2 -16 0 -12 7 5 7 1 9 -8 5 -9 -3 -16 -10 -16 -15 0 -5 -11 -9 -25
-9 -14 0 -25 4 -25 8 0 9 -41 9 -56 0 -5 -3 -56 -7 -113 -7 l-103 -1 27 32
c15 18 37 38 49 45 12 7 15 12 7 13 -9 0 -6 7 9 20 14 12 30 18 39 14 9 -3 25
-9 36 -12 11 -3 23 -10 27 -16 5 -8 8 -7 8 1 0 8 18 12 53 11 39 0 63 6 97 25
28 16 57 25 78 23 18 -1 35 1 38 6 3 4 17 6 31 4 14 -3 23 -3 20 1 -3 3 5 17
19 31 30 34 50 90 36 104 -16 16 -32 0 -32 -31 0 -42 -37 -70 -101 -78 -30 -3
-75 -16 -101 -29 -65 -33 -198 -34 -198 -1 0 5 60 71 133 146 72 75 148 157
166 182 l35 45 60 -14 c33 -7 122 -14 197 -15z m-168 -536 c6 -6 -20 -16 -69
-28 -63 -14 -120 -18 -274 -18 -107 0 -213 4 -234 8 -34 7 -37 10 -25 23 12
11 57 15 212 17 108 2 200 7 204 11 10 11 174 -1 186 -13z m57 -36 c-22 -24
-25 -24 -31 -8 -6 15 -8 15 -8 2 -1 -17 -37 -32 -53 -23 -18 12 -6 24 40 37
71 22 79 21 52 -8z m-144 -51 c-33 -8 -42 -8 -44 4 -5 18 1 23 40 31 25 6 34
3 39 -8 5 -12 -4 -19 -35 -27z m-516 28 c0 -14 -11 -21 -26 -15 -21 8 -17 23
6 23 11 0 20 -4 20 -8z m90 -23 c0 -20 -10 -23 -58 -13 -21 4 -28 11 -25 23 6
25 83 16 83 -10z m368 0 c3 -19 -24 -29 -81 -29 -31 0 -38 3 -35 18 2 11 16
19 43 23 55 9 69 6 73 -12z m-270 -11 c3 -15 -4 -18 -42 -18 -40 0 -46 3 -46
21 0 18 5 20 42 17 31 -2 44 -8 46 -20z m130 10 c28 -28 13 -38 -53 -38 -56 0
-65 2 -65 18 0 10 3 22 7 25 11 12 98 8 111 -5z m307 -378 c3 -5 0 -21 -8 -35
l-13 -26 -11 35 c-10 32 -9 36 7 36 11 0 22 -4 25 -10z m-540 -20 c3 -5 1 -19
-6 -31 -9 -17 -13 -19 -20 -8 -14 22 -11 49 5 49 8 0 18 -4 21 -10z m487 -72
c-19 -22 -29 -16 -37 24 -6 24 -3 35 11 45 17 12 20 10 30 -19 9 -27 9 -36 -4
-50z m-444 1 c-14 -40 -26 -45 -40 -15 -9 22 -8 29 7 46 26 29 47 10 33 -31z
m392 -44 c-19 -23 -25 -19 -37 25 -9 34 -8 42 6 49 22 13 50 -52 31 -74z
m-342 46 c9 -6 11 -19 7 -45 -8 -40 -12 -42 -40 -22 -16 12 -17 17 -6 45 14
33 18 35 39 22z m289 -35 c11 -36 4 -46 -32 -46 -12 0 -27 57 -18 73 12 20 40
5 50 -27z m-207 -27 c0 -40 -5 -44 -46 -33 -19 5 -21 9 -12 43 8 33 13 37 34
33 20 -4 24 -10 24 -43z m138 4 c3 -30 1 -33 -22 -33 -23 0 -26 4 -26 36 0 31
3 35 23 32 17 -2 23 -11 25 -35z m-68 -8 c0 -31 -3 -35 -25 -35 -22 0 -25 4
-25 35 0 31 3 35 25 35 22 0 25 -4 25 -35z m-780 -115 c0 -29 -2 -30 -45 -30
l-45 0 0 -40 0 -40 40 0 c38 0 40 -2 40 -30 0 -28 -2 -30 -40 -30 l-40 0 0
-70 0 -70 -30 0 -30 0 0 170 0 170 75 0 75 0 0 -30z m170 10 c27 -27 28 -115
2 -131 -18 -11 -17 -13 5 -35 30 -30 31 -91 2 -128 -18 -23 -27 -26 -85 -26
l-64 0 0 170 0 170 60 0 c47 0 64 -4 80 -20z m110 -150 l0 -170 -25 0 -25 0 0
170 0 170 25 0 25 0 0 -170z"/>
<path d="M1349 2687 c-59 -22 -106 -55 -141 -99 l-32 -41 39 26 c91 59 185 57
301 -8 71 -40 94 -43 119 -15 26 29 13 64 -37 93 -83 48 -188 66 -249 44z"/>
<path d="M1235 1760 c-3 -6 1 -7 9 -4 18 7 21 14 7 14 -6 0 -13 -4 -16 -10z"/>
<path d="M1275 1750 c3 -5 8 -10 11 -10 2 0 4 5 4 10 0 6 -5 10 -11 10 -5 0
-7 -4 -4 -10z"/>
<path d="M1130 1725 c0 -5 5 -17 10 -25 5 -8 10 -10 10 -5 0 6 -5 17 -10 25
-5 8 -10 11 -10 5z"/>
<path d="M1225 1720 c-4 -6 -11 -7 -17 -4 -7 4 -8 2 -4 -5 4 -6 11 -9 16 -6 5
3 11 1 15 -5 8 -13 -12 -50 -28 -50 -7 0 -18 -10 -26 -22 -13 -21 -13 -22 2
-9 10 7 17 10 17 5 0 -5 7 0 15 10 11 14 15 16 15 5 0 -12 2 -12 9 1 6 8 8 17
5 21 -2 4 1 11 7 15 7 4 9 3 5 -4 -10 -17 8 -21 29 -6 16 12 17 14 2 14 -15 0
-22 18 -18 43 1 5 -3 6 -8 2 -6 -3 -7 -13 -4 -23 6 -15 5 -15 -10 -3 -9 7 -14
17 -11 22 3 5 3 9 0 9 -3 0 -8 -5 -11 -10z"/>
<path d="M1165 1710 c-3 -5 -3 -15 1 -22 4 -6 0 -16 -8 -22 -13 -9 -13 -13 -2
-24 11 -10 14 -8 19 10 5 21 4 68 -2 68 -1 0 -5 -4 -8 -10z"/>
<path d="M1357 1692 c1 -8 3 -16 3 -18 0 -3 5 -2 10 1 6 3 10 11 10 16 0 6 -4
8 -9 5 -5 -4 -11 -3 -14 1 -2 5 -2 2 0 -5z"/>
<path d="M1389 1644 c-23 -25 -23 -26 -2 -13 13 7 25 19 27 26 8 19 2 16 -25
-13z"/>
<path d="M1454 1646 c-4 -10 -13 -15 -20 -12 -22 8 -16 -2 7 -15 13 -7 19 -7
15 -1 -3 6 4 12 16 14 19 3 20 4 5 17 -14 11 -18 11 -23 -3z"/>
<path d="M1290 1639 c0 -5 5 -7 10 -4 6 3 10 8 10 11 0 2 -4 4 -10 4 -5 0 -10
-5 -10 -11z"/>
<path d="M1311 1617 c2 -1 12 -9 22 -16 15 -12 17 -12 11 3 -3 9 -13 16 -22
16 -8 0 -13 -1 -11 -3z"/>
<path d="M1405 1610 c3 -5 8 -10 11 -10 2 0 4 5 4 10 0 6 -5 10 -11 10 -5 0
-7 -4 -4 -10z"/>
<path d="M1220 1571 c0 -5 6 -12 13 -14 9 -4 9 -8 -2 -15 -8 -6 -9 -12 -3 -16
12 -7 23 19 16 39 -7 16 -24 21 -24 6z"/>
<path d="M2130 1953 c0 -3 26 -30 59 -59 32 -30 73 -75 90 -102 32 -50 40 -79
19 -66 -7 4 -8 3 -4 -5 4 -6 11 -9 16 -6 5 3 14 -5 21 -17 11 -20 10 -21 -3
-11 -12 11 -14 8 -10 -18 2 -16 0 -29 -4 -28 -20 3 -34 -2 -34 -12 0 -8 5 -8
15 1 9 7 15 8 15 2 0 -6 12 -9 26 -7 14 1 22 -1 17 -6 -5 -5 -20 -10 -34 -11
-21 -2 -26 -7 -25 -28 2 -38 18 -55 50 -55 28 -1 39 -10 50 -47 3 -10 11 -15
19 -12 14 5 16 26 5 54 -17 42 -18 71 -3 76 8 4 15 11 15 16 0 6 -7 5 -15 -2
-20 -17 -32 -5 -15 15 7 9 9 15 4 13 -5 -2 -11 2 -13 7 -51 119 -127 230 -192
282 -39 31 -69 42 -69 26z m232 -367 c6 4 8 2 4 -4 -3 -6 -2 -13 4 -17 19 -12
10 -32 -12 -30 -13 1 -24 4 -25 5 -2 1 -9 3 -15 4 -21 2 -15 40 7 47 11 3 22
2 23 -3 2 -4 9 -5 14 -2z"/>
<path d="M2323 1568 c2 -7 7 -13 12 -13 5 0 10 6 13 13 2 6 -4 12 -13 12 -9 0
-15 -6 -12 -12z"/>
<path d="M2425 1761 c-3 -5 -2 -12 3 -15 5 -3 9 1 9 9 0 17 -3 19 -12 6z"/>
<path d="M2475 1746 c-23 -28 -35 -59 -14 -38 7 6 20 12 29 12 12 0 12 -2 1
-9 -9 -6 -10 -11 -2 -15 6 -4 11 -2 11 4 0 6 4 9 9 6 5 -3 12 1 15 10 3 8 2
13 -3 9 -13 -8 -42 5 -35 16 3 5 10 7 15 4 5 -3 6 1 3 9 -8 20 -5 20 -29 -8z"/>
<path d="M2592 1758 c-17 -22 -24 -58 -12 -58 6 0 9 4 6 8 -6 10 11 39 18 31
3 -3 -1 -17 -8 -31 -8 -15 -11 -29 -8 -33 4 -3 -1 -3 -10 0 -8 3 -21 16 -27
28 -11 20 -11 20 -6 -6 3 -16 2 -26 -3 -23 -5 3 -9 -1 -9 -10 0 -10 7 -12 21
-8 14 4 10 -2 -11 -18 -38 -27 -45 -48 -8 -24 15 10 24 12 23 5 -2 -6 3 -14
11 -16 9 -4 11 0 7 15 -5 15 -1 24 13 31 27 15 28 14 25 -11 -1 -13 -3 -28 -3
-35 -1 -7 -8 -10 -16 -7 -8 4 -15 1 -15 -5 0 -10 14 -15 33 -12 5 1 5 -4 1
-11 -4 -7 3 -4 16 7 13 11 20 14 16 8 -5 -8 -1 -13 10 -13 16 0 16 1 1 18 -11
12 -13 22 -7 32 15 23 12 32 -10 25 -15 -5 -18 -2 -15 15 3 17 0 20 -12 16
-11 -5 -14 -2 -9 10 3 8 6 22 6 30 0 18 19 14 45 -11 15 -13 18 -22 11 -27 -7
-5 -4 -8 7 -8 9 0 17 -8 18 -17 0 -11 2 -13 6 -5 3 7 -3 25 -13 40 -10 15 -18
34 -16 42 1 10 0 11 -4 2 -5 -10 -9 -10 -20 -1 -8 6 -14 8 -14 4 0 -4 -7 -2
-15 5 -8 7 -12 16 -9 21 8 14 -2 11 -14 -3z"/>
<path d="M2694 1711 c20 -22 26 -25 26 -13 0 4 -10 13 -22 21 -23 14 -23 14
-4 -8z"/>
<path d="M2416 1693 c-6 -14 -5 -15 5 -6 7 7 10 15 7 18 -3 3 -9 -2 -12 -12z"/>
<path d="M2260 1690 c0 -5 -9 -19 -20 -30 -16 -16 -17 -20 -5 -20 8 0 15 -5
15 -11 0 -6 -7 -9 -14 -6 -10 4 -13 1 -9 -8 3 -9 -7 -21 -26 -32 -17 -10 -31
-22 -31 -27 0 -9 18 3 58 38 22 19 22 19 22 0 0 -16 2 -16 10 -4 6 10 6 16 0
18 -6 2 -7 8 -4 14 7 11 13 78 7 78 -1 0 -3 -4 -3 -10z"/>
<path d="M2444 1681 c4 -5 0 -11 -6 -14 -7 -3 -3 -4 9 -4 17 1 19 4 11 14 -12
15 -22 18 -14 4z"/>
<path d="M2280 1676 c0 -2 7 -6 15 -10 8 -3 15 -1 15 4 0 6 -7 10 -15 10 -8 0
-15 -2 -15 -4z"/>
<path d="M2474 1647 c-2 -7 -1 -24 4 -37 l9 -25 7 23 c4 12 12 22 17 22 5 0 9
5 9 11 0 8 -5 8 -15 -1 -14 -11 -19 -7 -16 13 2 12 -9 8 -15 -6z"/>
<path d="M2586 1631 c-4 -5 -2 -12 3 -15 5 -4 12 -2 15 3 4 5 2 12 -3 15 -5 4
-12 2 -15 -3z"/>
<path d="M2145 1620 c-3 -5 -1 -10 4 -10 6 0 11 5 11 10 0 6 -2 10 -4 10 -3 0
-8 -4 -11 -10z"/>
<path d="M2177 1624 c-11 -11 3 -24 18 -18 8 4 12 10 9 15 -6 11 -18 12 -27 3z"/>
<path d="M2110 1609 c0 -5 5 -7 10 -4 6 3 10 8 10 11 0 2 -4 4 -10 4 -5 0 -10
-5 -10 -11z"/>
<path d="M2532 1598 c-7 -7 -12 -19 -12 -28 0 -9 -9 -16 -19 -17 -14 -1 -18 3
-15 15 5 16 5 16 -6 0 -6 -9 -17 -15 -25 -12 -8 4 -15 2 -15 -4 0 -6 -3 -19
-6 -29 -3 -12 -1 -10 8 5 8 12 17 20 21 16 3 -4 -3 -19 -13 -35 -14 -19 -17
-30 -9 -35 8 -4 7 -9 -2 -15 -9 -5 4 -6 31 -3 41 5 43 5 25 -9 -10 -8 -25 -13
-32 -10 -9 4 -11 0 -7 -11 4 -10 1 -16 -9 -16 -15 0 -16 -5 -17 -71 0 -17 -7
-29 -21 -35 -19 -9 -20 -11 -5 -23 14 -12 16 -12 10 3 -3 9 -1 16 4 16 17 0
19 -33 4 -58 -13 -21 -13 -22 4 -16 39 14 47 27 28 41 -10 7 -13 13 -7 13 6 0
13 9 16 20 3 11 1 20 -4 20 -5 0 -9 -7 -9 -17 0 -9 -3 -13 -7 -9 -13 12 -8 61
7 74 8 8 9 11 3 7 -8 -4 -11 -1 -7 9 5 12 11 13 24 6 21 -11 35 2 25 23 -4 6
-1 5 7 -4 7 -8 21 -18 31 -22 9 -3 17 -12 17 -19 0 -9 -3 -9 -10 2 -5 8 -12
12 -15 9 -3 -4 1 -12 9 -18 12 -10 17 -8 26 10 10 17 9 20 -1 14 -9 -6 -10 -3
-6 10 6 14 3 16 -13 12 -17 -4 -19 -3 -10 8 8 10 7 14 -2 18 -10 4 -10 6 1 6
11 1 11 4 1 16 -9 10 -9 15 -1 15 10 0 15 -13 13 -32 -1 -3 5 -9 13 -12 15 -5
42 31 31 41 -3 4 -1 12 5 20 6 7 8 13 5 13 -4 0 -2 9 4 20 7 14 8 26 1 38 -9
15 -10 14 -11 -6 0 -13 -4 -21 -9 -17 -6 3 -15 -5 -22 -17 -11 -20 -10 -21 2
-11 13 10 15 7 15 -22 0 -19 -4 -35 -8 -35 -4 0 -8 9 -8 21 0 16 -4 19 -22 14
-18 -5 -20 -4 -8 4 13 9 8 15 -11 13 -4 -1 -9 8 -12 18 -3 11 -1 20 4 20 5 0
9 -4 9 -10 0 -16 18 -12 38 8 23 25 24 37 3 56 -13 12 -20 13 -29 4z m32 -16
c2 -4 -4 -18 -13 -31 -21 -27 -33 -17 -20 17 8 22 24 29 33 14z m-75 -51 c8
-14 7 -20 -3 -24 -10 -4 -13 2 -12 19 1 29 2 29 15 5z m21 -45 c0 -2 -7 -7
-16 -10 -8 -3 -12 -2 -9 4 6 10 25 14 25 6z"/>
<path d="M2540 1569 c0 -5 5 -7 10 -4 6 3 10 8 10 11 0 2 -4 4 -10 4 -5 0 -10
-5 -10 -11z"/>
<path d="M1938 1555 c-3 -14 -1 -25 4 -25 5 0 7 -4 4 -9 -9 -14 21 -21 32 -8
11 14 12 48 1 41 -5 -2 -6 -11 -2 -19 4 -11 1 -13 -12 -9 -10 4 -15 14 -12 25
3 11 2 21 -3 24 -4 3 -10 -6 -12 -20z"/>
<path d="M2209 1557 c-14 -12 -23 -21 -20 -20 2 2 11 -3 20 -10 14 -11 15 -10
1 7 -14 18 -13 19 3 13 11 -4 20 -1 24 9 9 24 -1 25 -28 1z"/>
<path d="M1809 1549 c-13 -10 -28 -15 -33 -12 -5 4 -6 1 -1 -7 6 -10 1 -11
-21 -6 -19 4 -24 3 -14 -3 11 -6 112 -8 139 -2 2 1 -2 8 -9 16 -7 8 -16 13
-20 10 -5 -3 -12 0 -16 6 -4 7 -3 9 4 5 6 -3 13 -3 16 2 9 15 -21 9 -45 -9z
m24 -12 c3 -8 -3 -13 -18 -13 -13 0 -21 4 -19 8 3 5 10 6 15 3 5 -4 9 -1 9 4
0 15 7 14 13 -2z"/>
<path d="M2060 1561 c0 -5 7 -12 16 -15 14 -5 15 -4 4 9 -14 17 -20 19 -20 6z"/>
<path d="M2140 1565 c0 -5 5 -17 10 -25 5 -8 10 -10 10 -5 0 6 -5 17 -10 25
-5 8 -10 11 -10 5z"/>
<path d="M2250 1558 c0 -4 4 -8 9 -8 6 0 12 4 15 8 3 5 -1 9 -9 9 -8 0 -15 -4
-15 -9z"/>
<path d="M1906 1531 c-3 -5 2 -15 12 -22 15 -12 16 -12 5 2 -7 9 -10 19 -6 22
3 4 4 7 0 7 -3 0 -8 -4 -11 -9z"/>
<path d="M2403 1431 c-12 -9 -15 -34 -4 -27 5 4 11 3 13 -1 3 -5 4 -3 3 2 -1
6 5 15 13 21 13 9 13 11 -1 11 -9 0 -20 -3 -24 -6z"/>
<path d="M2468 1368 c-3 -7 1 -19 9 -26 9 -10 10 -19 3 -33 -6 -10 -7 -19 -3
-19 4 0 1 -5 -7 -10 -13 -8 -11 -11 7 -16 13 -4 21 -10 18 -14 -3 -5 0 -12 6
-16 7 -4 9 -3 5 4 -3 6 6 20 20 31 l27 21 -32 -4 c-35 -4 -44 3 -32 23 6 9 11
10 15 2 4 -6 16 -11 28 -11 17 0 18 2 8 15 -7 8 -10 15 -6 15 4 0 -1 11 -10
25 -20 31 -36 33 -25 3 5 -13 13 -22 18 -21 5 1 10 -5 10 -13 0 -24 -14 -15
-31 21 -18 38 -22 41 -28 23z"/>
<path d="M2563 1325 c0 -8 4 -12 9 -9 5 3 6 10 3 15 -9 13 -12 11 -12 -6z"/>
<path d="M2525 1260 c-3 -5 -1 -10 4 -10 6 0 11 5 11 10 0 6 -2 10 -4 10 -3 0
-8 -4 -11 -10z"/>
<path d="M2520 1236 c0 -2 7 -7 16 -10 8 -3 12 -2 9 4 -6 10 -25 14 -25 6z"/>
<path d="M1523 1217 c0 -9 4 -14 9 -11 11 7 10 -3 -2 -26 -7 -13 -7 -21 0 -25
6 -4 7 -11 4 -17 -5 -7 -2 -8 5 -3 9 5 9 11 2 18 -7 7 -4 15 8 26 9 9 15 15
13 14 -3 -1 -12 7 -22 19 -13 17 -17 18 -17 5z"/>
<path d="M2380 1214 c0 -3 10 -14 23 -24 12 -10 19 -22 15 -26 -4 -4 -14 -1
-22 5 -8 7 -17 8 -20 3 -3 -6 4 -12 15 -15 14 -4 18 -10 13 -19 -17 -27 -27
-105 -15 -113 6 -3 8 9 5 31 -4 32 -2 35 11 24 10 -9 15 -9 15 -1 0 6 -4 11
-9 11 -13 0 -9 38 4 44 6 2 23 2 38 1 22 -3 26 0 18 9 -6 7 -8 16 -4 19 3 4 0
7 -8 7 -8 0 -20 -5 -26 -11 -7 -7 -10 -3 -8 15 2 15 0 24 -5 21 -4 -3 -10 2
-14 10 -5 14 -26 21 -26 9z"/>
<path d="M2450 1209 c0 -5 5 -7 10 -4 6 3 10 8 10 11 0 2 -4 4 -10 4 -5 0 -10
-5 -10 -11z"/>
<path d="M2495 1210 c3 -5 16 -10 28 -10 18 0 19 2 7 10 -20 13 -43 13 -35 0z"/>
<path d="M1455 1181 c3 -5 1 -12 -4 -16 -16 -9 -9 -44 8 -37 11 4 11 7 3 10
-10 3 -10 7 -1 18 14 17 29 18 25 2 -1 -7 -1 -10 1 -5 3 4 10 5 16 1 7 -3 1 4
-12 15 -24 21 -47 29 -36 12z"/>
<path d="M1498 1123 c7 -3 16 -2 19 1 4 3 -2 6 -13 5 -11 0 -14 -3 -6 -6z"/>
<path d="M1535 1110 c-3 -6 1 -7 9 -4 18 7 21 14 7 14 -6 0 -13 -4 -16 -10z"/>
<path d="M1495 1080 c-10 -11 -16 -22 -14 -24 2 -2 12 7 22 20 22 29 17 32 -8
4z"/>
<path d="M2353 1074 c-3 -8 -2 -19 3 -24 5 -5 9 1 9 16 0 28 -3 30 -12 8z"/>
<path d="M1560 1059 c-7 -12 -5 -19 6 -23 24 -9 29 -7 16 6 -14 14 -16 32 -3
23 5 -3 12 -2 15 3 3 5 -2 9 -10 9 -8 0 -19 -8 -24 -18z"/>
<path d="M2410 1050 c0 -3 16 -7 35 -7 19 0 33 2 30 5 -7 8 -65 10 -65 2z"/>
<path d="M2346 999 c-34 -27 -33 -35 7 -48 25 -9 29 -14 17 -21 -8 -5 -10 -10
-4 -10 6 0 17 7 24 15 10 12 10 15 -4 15 -9 0 -16 7 -16 15 0 8 -4 15 -10 15
-5 0 -10 -5 -10 -11 0 -5 -5 -7 -10 -4 -8 5 -7 11 1 21 6 7 15 12 19 9 4 -3
10 2 14 10 7 20 4 19 -28 -6z"/>
<path d="M2390 989 c0 -5 5 -7 10 -4 6 3 10 8 10 11 0 2 -4 4 -10 4 -5 0 -10
-5 -10 -11z"/>
<path d="M1561 982 c-1 -7 -5 -10 -11 -7 -6 3 -7 -1 -3 -10 4 -12 8 -13 13 -5
6 9 9 9 12 -1 3 -9 6 -8 11 5 4 9 3 15 -2 11 -5 -3 -12 1 -14 7 -4 10 -6 10
-6 0z"/>
<path d="M2419 973 c-13 -16 -12 -17 4 -4 16 13 21 21 13 21 -2 0 -10 -8 -17
-17z"/>
<path d="M2329 943 c-1 -4 0 -19 1 -33 2 -21 0 -22 -14 -11 -13 11 -15 10 -11
-7 4 -22 -19 -37 -38 -26 -9 5 -9 3 0 -6 7 -8 19 -10 30 -5 10 5 23 7 28 6 6
-2 7 1 3 5 -4 4 -3 13 2 20 15 17 20 53 9 59 -5 4 -9 3 -10 -2z"/>
<path d="M1627 931 c6 -7 9 -20 6 -27 -3 -8 -3 -14 0 -14 14 0 14 30 -1 41
-14 11 -15 11 -5 0z"/>
<path d="M2365 890 c-4 -6 3 -10 14 -10 25 0 27 6 6 13 -8 4 -17 2 -20 -3z"/>
<path d="M1627 864 c-3 -3 -3 -12 0 -20 4 -10 0 -13 -13 -8 -15 5 -16 4 -4 -5
8 -5 15 -18 15 -28 0 -10 3 -18 6 -18 15 0 48 -39 42 -49 -4 -6 3 -2 15 8 17
14 19 22 11 32 -6 8 -16 11 -22 7 -6 -4 -8 0 -4 9 3 9 -2 23 -13 33 -11 10
-17 21 -15 26 6 9 -10 21 -18 13z m30 -46 c4 -7 8 -20 8 -28 0 -8 6 -16 13
-16 22 -2 23 -4 17 -15 -5 -7 -15 -3 -29 10 -12 12 -25 19 -27 16 -3 -2 -5 7
-5 20 0 27 10 32 23 13z"/>
<path d="M2370 859 c0 -5 5 -7 10 -4 6 3 10 8 10 11 0 2 -4 4 -10 4 -5 0 -10
-5 -10 -11z"/>
<path d="M2307 844 c-3 -3 -1 -18 4 -32 9 -23 7 -30 -12 -45 -12 -9 -20 -20
-17 -22 7 -7 68 46 68 59 0 6 -5 4 -10 -4 -7 -12 -11 -10 -18 10 -5 14 -8 28
-5 33 5 8 -1 9 -10 1z"/>
<path d="M2335 841 c-6 -11 9 -23 19 -14 9 9 7 23 -3 23 -6 0 -12 -4 -16 -9z"/>
<path d="M2193 828 c-11 -15 -10 -24 5 -58 6 -15 11 -19 11 -9 1 9 -2 19 -6
23 -11 11 -10 30 1 38 6 4 8 10 5 13 -4 3 -10 0 -16 -7z"/>
<path d="M2240 815 c-7 -8 -9 -15 -5 -15 4 0 2 -6 -4 -14 -10 -12 -8 -17 8
-26 12 -6 20 -14 20 -18 -1 -4 -1 -18 0 -32 1 -19 3 -22 11 -10 6 9 5 19 -3
29 -7 8 -11 16 -9 18 7 10 0 23 -15 23 -14 0 -14 2 2 20 10 11 14 20 9 20 -5
0 -2 5 6 10 8 5 10 10 4 10 -6 0 -17 -7 -24 -15z"/>
<path d="M2280 820 c0 -5 5 -10 11 -10 5 0 7 5 4 10 -3 6 -8 10 -11 10 -2 0
-4 -4 -4 -10z"/>
<path d="M2118 773 c-8 -10 -18 -27 -22 -38 -7 -20 -7 -20 12 0 11 11 18 22
16 24 -2 2 1 10 7 18 6 7 9 13 7 13 -3 0 -12 -8 -20 -17z"/>
<path d="M2275 780 c3 -5 8 -10 11 -10 2 0 4 5 4 10 0 6 -5 10 -11 10 -5 0 -7
-4 -4 -10z"/>
<path d="M2015 760 c-4 -6 1 -7 11 -3 13 5 15 3 9 -7 -5 -9 -4 -11 3 -6 17 10
15 -19 -3 -53 -14 -27 -11 -41 7 -41 5 0 8 6 6 13 -2 7 2 12 7 12 6 0 9 -3 8
-7 -3 -9 27 -32 34 -25 3 4 0 13 -7 22 -7 8 -10 21 -7 29 8 19 -3 28 -19 15
-9 -8 -11 -5 -7 10 8 32 -26 66 -42 41z"/>
<path d="M2145 740 c-4 -11 -11 -18 -16 -15 -5 4 -9 1 -9 -5 0 -7 8 -9 21 -5
15 5 19 4 15 -4 -4 -6 -3 -11 3 -11 11 0 24 18 27 37 2 9 -3 10 -17 3 -15 -8
-17 -7 -13 5 4 8 4 15 1 15 -3 0 -9 -9 -12 -20z"/>
<path d="M1723 736 c-4 -5 3 -7 15 -4 12 3 23 1 26 -6 2 -6 5 -3 5 6 1 18 -36
21 -46 4z"/>
<path d="M1884 710 c1 -17 6 -30 14 -30 8 0 10 5 6 12 -5 8 -2 9 10 5 10 -4
15 -3 11 3 -3 6 -1 10 4 10 6 0 11 4 11 10 0 5 -6 7 -14 4 -8 -3 -17 -1 -21 5
-12 20 -22 11 -21 -19z"/>
<path d="M2208 733 c7 -3 16 -2 19 1 4 3 -2 6 -13 5 -11 0 -14 -3 -6 -6z"/>
<path d="M1735 700 c6 -9 2 -10 -16 -5 -13 4 -21 4 -17 0 4 -5 3 -14 -3 -21
-12 -15 -4 -34 14 -34 7 0 6 4 -3 10 -13 9 -13 11 0 20 8 5 21 10 28 10 15 0
16 16 0 26 -7 5 -8 3 -3 -6z"/>
<path d="M1965 693 c-13 -28 -14 -44 -4 -37 5 3 7 9 5 13 -3 4 4 7 14 8 15 1
18 -4 14 -25 -3 -15 -7 -33 -9 -39 -8 -23 10 -13 21 11 8 18 8 28 1 35 -6 6
-8 11 -4 11 4 0 3 9 -3 20 -13 25 -25 26 -35 3z"/>
<path d="M1846 678 c3 -13 6 -29 6 -35 1 -7 5 -13 9 -13 4 0 5 -10 2 -22 -5
-23 -5 -23 12 -3 14 17 16 18 11 2 -3 -11 -2 -16 4 -12 15 10 12 35 -5 35 -8
0 -15 5 -15 10 0 6 4 10 10 10 6 0 5 10 -2 25 -14 32 -39 34 -32 3z"/>
<path d="M2177 694 c-3 -3 -3 -12 -1 -19 3 -7 1 -16 -5 -20 -6 -3 -11 -10 -11
-16 0 -5 8 -1 18 9 18 16 22 35 11 47 -3 3 -8 2 -12 -1z"/>
<path d="M1915 670 c-4 -6 -10 -8 -15 -5 -10 6 -8 -15 3 -32 5 -8 19 -10 39
-6 24 5 29 3 23 -7 -5 -8 -4 -11 2 -7 13 8 24 47 14 47 -4 0 -12 -5 -19 -12
-7 -7 -12 -9 -12 -5 0 4 -9 3 -20 -3 -24 -13 -26 -7 -5 14 9 8 11 17 6 21 -5
3 -12 1 -16 -5z"/>
<path d="M2109 668 c10 -14 17 -15 33 -7 11 6 17 13 14 16 -3 3 -12 1 -19 -5
-10 -9 -17 -8 -27 1 -12 10 -12 9 -1 -5z"/>
<path d="M1773 631 c-16 -12 -19 -19 -10 -26 8 -7 19 -4 35 11 28 27 7 40 -25
15z"/>
<path d="M2060 636 c0 -2 8 -10 18 -17 15 -13 16 -12 3 4 -13 16 -21 21 -21
13z"/>
<path d="M1828 613 c19 -8 14 -26 -5 -18 -15 5 -16 4 -5 -6 9 -10 15 -10 23
-2 13 13 4 33 -14 32 -9 0 -9 -2 1 -6z"/>
<path d="M1850 570 c0 -5 5 -10 11 -10 5 0 7 5 4 10 -3 6 -8 10 -11 10 -2 0
-4 -4 -4 -10z"/>
<path d="M1280 655 c0 -38 3 -45 20 -45 17 0 20 7 20 45 0 38 -3 45 -20 45
-17 0 -20 -7 -20 -45z"/>
<path d="M1280 510 c0 -48 2 -51 23 -48 19 3 22 9 22 48 0 39 -3 45 -22 48
-21 3 -23 0 -23 -48z"/>
</g>
</svg>
